<?xml version="1.0" encoding="UTF-8"?>
<svg version="1.1" xmlns="http://www.w3.org/2000/svg" width="48" height="48">
<path d="M0 0 C0.33 0 0.66 0 1 0 C1 5.94 1 11.88 1 18 C4.96 18 8.92 18 13 18 C11.36036204 23.94615694 8.37624538 29.03522078 5.375 34.375 C4.859375 35.30183594 4.34375 36.22867188 3.8125 37.18359375 C2.54617189 39.45829425 1.27524075 41.73028792 0 44 C-0.33 44 -0.66 44 -1 44 C-1 38.06 -1 32.12 -1 26 C-4.96 26 -8.92 26 -13 26 C-11.36036204 20.05384306 -8.37624538 14.96477922 -5.375 9.625 C-4.6015625 8.23474609 -4.6015625 8.23474609 -3.8125 6.81640625 C-2.54617189 4.54170575 -1.27524075 2.26971208 0 0 Z " fill="#FFFFFF" transform="translate(25,2)"/>
</svg>
